<svg xmlns="http://www.w3.org/2000/svg" width="108.517" height="40.187" viewBox="0 0 108.517 40.187">
  <g id="Group_6" data-name="Group 6" transform="translate(-88.908 -199.913)">
    <path id="Path_83" data-name="Path 83" d="M40.528,548.328a4.137,4.137,0,0,1-4.016-5.124l1.619-6.527a4.09,4.09,0,0,1,.138-.437,4.446,4.446,0,0,1,.084-.445l.786-3.172a4.137,4.137,0,0,1,4.016-3.143H53.773a7.54,7.54,0,0,1,4.478,1.351,5.831,5.831,0,0,1,2.55,4.827,5.984,5.984,0,0,1-.157,1.361l-.183.752a4.362,4.362,0,0,1-.138.462c-.017.117-.037.234-.063.349a4.947,4.947,0,0,1-.467,1.241v.138a4.812,4.812,0,0,1-.154,1.2l-.386,1.551a6.929,6.929,0,0,1-3.33,4.3,9.1,9.1,0,0,1-4.769,1.317Z" transform="translate(57.533 -329.563)" fill="#fff"/>
    <path id="Path_84" data-name="Path 84" d="M49.166,555.579a2.758,2.758,0,0,1-2.673-3.421l1.615-6.52a2.661,2.661,0,0,1,.138-.433,2.758,2.758,0,0,1,.073-.448l.786-3.172a2.758,2.758,0,0,1,2.677-2.095H62.4a6.194,6.194,0,0,1,3.678,1.095,4.479,4.479,0,0,1,1.971,3.708,4.57,4.57,0,0,1-.121,1.048l-.181.736a2.613,2.613,0,0,1-.152.45,2.649,2.649,0,0,1-.059.385,3.6,3.6,0,0,1-.531,1.219,3.437,3.437,0,0,1,.032.462,3.393,3.393,0,0,1-.112.863l-.389,1.558a5.558,5.558,0,0,1-2.7,3.447,7.744,7.744,0,0,1-4.056,1.118Z" transform="translate(48.894 -338.192)" fill="#fff"/>
    <path id="Path_85" data-name="Path 85" d="M57.763,562.821a1.379,1.379,0,0,1-1.338-1.711l1.613-6.52a1.365,1.365,0,0,1,.185-.422,1.328,1.328,0,0,1,.034-.459l.786-3.172a1.379,1.379,0,0,1,1.338-1.047H71a4.809,4.809,0,0,1,2.877.837,3.088,3.088,0,0,1,1.393,2.586,3.242,3.242,0,0,1-.086.735l-.176.721a1.355,1.355,0,0,1-.183.432,1.4,1.4,0,0,1-.029.427,2.533,2.533,0,0,1-.689,1.193,2.1,2.1,0,0,1,.157.793,2.043,2.043,0,0,1-.069.521L73.8,559.31a4.214,4.214,0,0,1-2.069,2.591,6.384,6.384,0,0,1-3.344.921Z" transform="translate(40.297 -346.813)" fill="#fff"/>
    <path id="Path_86" data-name="Path 86" d="M82.119,563.543q-.124.552-1.26,1.233a1.6,1.6,0,0,1,.689,1.058.648.648,0,0,1-.025.176l-.389,1.586a2.869,2.869,0,0,1-1.445,1.744,5,5,0,0,1-2.631.723H66.44l1.615-6.52Zm.444-2.009a1.857,1.857,0,0,1-.05.423l-.172.7H68.264l.786-3.172H79.669a3.454,3.454,0,0,1,2.069.582A1.791,1.791,0,0,1,82.563,561.534Zm-5.479,4.476H71.876l-.218.881h5.2Z" transform="translate(31.629 -355.434)" fill="#fff"/>
    <path id="Path_87" data-name="Path 87" d="M151.418,548.371a4.137,4.137,0,0,1-4.016-5.124l1.615-6.52a3.836,3.836,0,0,0,.222-.883l.786-3.172a4.137,4.137,0,0,1,4.016-3.143h12.352a4.137,4.137,0,0,1,4.014,5.138l-.79,3.172a3.814,3.814,0,0,0-.212.849l-.594,2.467a4.349,4.349,0,0,1-.145.473,3.868,3.868,0,0,1-.086.44l-.79,3.172a4.137,4.137,0,0,1-4.014,3.137Z" transform="translate(-38.066 -329.606)" fill="#fff"/>
    <path id="Path_88" data-name="Path 88" d="M160.03,555.579a2.758,2.758,0,0,1-2.677-3.421l1.613-6.52a2.809,2.809,0,0,1,.146-.433,2.758,2.758,0,0,1,.073-.448l.786-3.172a2.758,2.758,0,0,1,2.677-2.095H175a2.758,2.758,0,0,1,2.677,3.425l-.79,3.172a2.771,2.771,0,0,1-.15.441,2.734,2.734,0,0,1-.068.414l-.594,2.467a2.8,2.8,0,0,0-.223.907l-.79,3.172a2.758,2.758,0,0,1-2.677,2.092Z" transform="translate(-46.678 -338.192)" fill="#fff"/>
    <path id="Path_89" data-name="Path 89" d="M168.645,562.821a1.379,1.379,0,0,1-1.339-1.711l1.615-6.52a1.4,1.4,0,0,1,.183-.422,1.364,1.364,0,0,1,.036-.459l.785-3.172a1.379,1.379,0,0,1,1.339-1.047h12.352a1.379,1.379,0,0,1,1.338,1.711l-.789,3.172a1.352,1.352,0,0,0-.221.872l-.594,2.467a1.379,1.379,0,0,1-.188.434,1.417,1.417,0,0,1-.036.456l-.79,3.172A1.379,1.379,0,0,1,181,562.821Z" transform="translate(-55.292 -346.813)" fill="#fff"/>
    <path id="Path_90" data-name="Path 90" d="M191.228,563.534,190.634,566h-7.92l-.218.881h7.917l-.792,3.172H177.27l1.618-6.52Zm1.012-4.054-.79,3.172H179.1l.786-3.172Z" transform="translate(-63.917 -355.426)" fill="#fff"/>
    <path id="Path_91" data-name="Path 91" d="M265.978,548.328a4.137,4.137,0,0,1-4.017-5.124l.578-2.336a4.137,4.137,0,0,1-3.31-5.079l.79-3.172a4.137,4.137,0,0,1,4.014-3.137H277.62a4.137,4.137,0,0,1,4.014,5.138l-.79,3.172a4.137,4.137,0,0,1-4.014,3.137h-1.34l-1.048,4.253a4.127,4.127,0,0,1-4.017,3.148Z" transform="translate(-134.469 -329.563)" fill="#fff"/>
    <path id="Path_92" data-name="Path 92" d="M274.555,555.57a2.758,2.758,0,0,1-2.678-3.417l.98-3.984h-1.045a2.758,2.758,0,0,1-2.675-3.425l.79-3.172a2.758,2.758,0,0,1,2.677-2.092H286.19a2.758,2.758,0,0,1,2.677,3.425l-.79,3.172a2.758,2.758,0,0,1-2.677,2.092h-2.424l-1.306,5.3a2.758,2.758,0,0,1-2.678,2.1Z" transform="translate(-143.046 -338.184)" fill="#fff"/>
    <path id="Path_93" data-name="Path 93" d="M283.174,562.821a1.379,1.379,0,0,1-1.339-1.709l1.4-5.693h-2.806a1.379,1.379,0,0,1-1.338-1.713l.79-3.172a1.379,1.379,0,0,1,1.339-1.045H294.81a1.379,1.379,0,0,1,1.335,1.711l-.79,3.172a1.379,1.379,0,0,1-1.339,1.047h-3.5l-1.565,6.352a1.379,1.379,0,0,1-1.339,1.049Z" transform="translate(-151.664 -346.813)" fill="#fff"/>
    <path id="Path_94" data-name="Path 94" d="M303.427,559.48l-.79,3.172H289.05l.792-3.172Zm-5.589,4.054-1.607,6.52h-4.439l1.605-6.52Z" transform="translate(-160.283 -355.426)" fill="#fff"/>
    <path id="Path_95" data-name="Path 95" d="M373.441,548.345a4.137,4.137,0,0,1-4.017-5.124l.575-2.333a4.137,4.137,0,0,1-3.31-5.079l.79-3.172a4.137,4.137,0,0,1,4.014-3.137h13.583a4.137,4.137,0,0,1,4.014,5.138l-.79,3.172a4.137,4.137,0,0,1-4.014,3.137h-1.342L381.9,545.2a4.129,4.129,0,0,1-4.017,3.148Z" transform="translate(-227.11 -329.58)" fill="#fff"/>
    <path id="Path_96" data-name="Path 96" d="M382.035,555.57a2.758,2.758,0,0,1-2.678-3.417l.982-3.984h-1.045a2.758,2.758,0,0,1-2.677-3.426l.79-3.172a2.758,2.758,0,0,1,2.677-2.092h13.587a2.758,2.758,0,0,1,2.677,3.425l-.792,3.172a2.758,2.758,0,0,1-2.675,2.092H390.46l-1.311,5.3a2.758,2.758,0,0,1-2.678,2.1Z" transform="translate(-235.704 -338.184)" fill="#fff"/>
    <path id="Path_97" data-name="Path 97" d="M390.663,562.821a1.379,1.379,0,0,1-1.339-1.709l1.4-5.693h-2.8a1.379,1.379,0,0,1-1.338-1.713l.79-3.172a1.379,1.379,0,0,1,1.338-1.045H402.3a1.379,1.379,0,0,1,1.338,1.711l-.79,3.172a1.379,1.379,0,0,1-1.338,1.047h-3.5l-1.564,6.352a1.379,1.379,0,0,1-1.339,1.049Z" transform="translate(-244.331 -346.813)" fill="#fff"/>
    <path id="Path_98" data-name="Path 98" d="M410.917,559.48l-.79,3.172H396.54l.79-3.172Zm-5.59,4.054-1.605,6.52h-4.44l1.607-6.52Z" transform="translate(-252.95 -355.426)" fill="#fff"/>
    <path id="Path_99" data-name="Path 99" d="M464.945,548.319a4.137,4.137,0,0,1-4.016-5.133l1.615-6.52c.028-.109.059-.218.1-.326a4.045,4.045,0,0,1,.106-.586l.809-3.172a4.137,4.137,0,0,1,4.009-3.114H472a4.137,4.137,0,0,1,4.009,5.162L475.2,537.8c-.026.1-.055.2-.088.3a4.161,4.161,0,0,1-.1.552l-1.615,6.52a4.129,4.129,0,0,1-4.017,3.147Z" transform="translate(-308.356 -329.554)" fill="#fff"/>
    <path id="Path_100" data-name="Path 100" d="M473.57,555.613a2.758,2.758,0,0,1-2.677-3.421l1.615-6.52a2.6,2.6,0,0,1,.116-.36,2.7,2.7,0,0,1,.081-.542l.811-3.172a2.758,2.758,0,0,1,2.672-2.069h4.44a2.758,2.758,0,0,1,2.672,3.447l-.811,3.172a2.8,2.8,0,0,1-.112.341,2.673,2.673,0,0,1-.077.52l-1.615,6.513a2.758,2.758,0,0,1-2.678,2.091Z" transform="translate(-316.981 -338.227)" fill="#fff"/>
    <path id="Path_101" data-name="Path 101" d="M482.185,562.821a1.379,1.379,0,0,1-1.339-1.711l1.616-6.52a1.412,1.412,0,0,0,.194-.891l.811-3.172a1.379,1.379,0,0,1,1.336-1.037h4.44a1.379,1.379,0,0,1,1.336,1.725l-.811,3.172a1.347,1.347,0,0,0-.19.872l-1.615,6.52a1.379,1.379,0,0,1-1.339,1.048Z" transform="translate(-325.595 -346.813)" fill="#fff"/>
    <path id="Path_102" data-name="Path 102" d="M496.857,563.534l-1.616,6.52H490.8l1.615-6.52Zm1-4.054-.811,3.172h-4.44l.811-3.172Z" transform="translate(-334.212 -355.426)" fill="#fff"/>
    <path id="Path_103" data-name="Path 103" d="M515.419,548.371a4.117,4.117,0,0,1-2.358-.735,4.159,4.159,0,0,1-2.344.735h-4.44a4.137,4.137,0,0,1-4.024-5.124l1.613-6.52a4.438,4.438,0,0,1,.138-.437,4.1,4.1,0,0,1,.086-.445l.786-3.172a4.129,4.129,0,0,1,4.016-3.143h10.127a7.54,7.54,0,0,1,4.478,1.351,5.818,5.818,0,0,1,2.55,4.826,6.046,6.046,0,0,1-.156,1.358c0,.021-.185.754-.185.754a4.151,4.151,0,0,1-.138.445,3.979,3.979,0,0,1-.084.443l-1.608,6.517a4.127,4.127,0,0,1-4.016,3.146Z" transform="translate(-343.982 -329.606)" fill="#fff"/>
    <path id="Path_104" data-name="Path 104" d="M524.049,555.579a2.758,2.758,0,0,0-4.706,0H514.9a2.758,2.758,0,0,1-2.678-3.421l1.615-6.52a2.661,2.661,0,0,1,.146-.433,2.761,2.761,0,0,1,.072-.448l.786-3.172a2.758,2.758,0,0,1,2.678-2.095h10.127a6.194,6.194,0,0,1,3.678,1.095,4.479,4.479,0,0,1,1.971,3.708,4.651,4.651,0,0,1-.12,1.047l-.181.738a2.687,2.687,0,0,1-.148.439,2.744,2.744,0,0,1-.073.447l-1.609,6.526a2.758,2.758,0,0,1-2.677,2.1Z" transform="translate(-352.611 -338.192)" fill="#fff"/>
    <path id="Path_105" data-name="Path 105" d="M532.706,562.821a1.379,1.379,0,0,1-1.339-1.71l1.411-5.691h-1.862l-1.572,6.353a1.379,1.379,0,0,1-1.339,1.048h-4.44a1.379,1.379,0,0,1-1.339-1.711l1.615-6.52a1.362,1.362,0,0,1,.183-.422,1.4,1.4,0,0,1,.035-.459l.786-3.172a1.379,1.379,0,0,1,1.339-1.047h10.127a4.808,4.808,0,0,1,2.877.837,3.088,3.088,0,0,1,1.393,2.586,3.258,3.258,0,0,1-.084.734l-.178.722a1.4,1.4,0,0,0-.218.883l-1.609,6.52a1.379,1.379,0,0,1-1.339,1.049Z" transform="translate(-361.269 -346.813)" fill="#fff"/>
    <path id="Path_106" data-name="Path 106" d="M538.205,563.543l-1.615,6.52h-4.44l1.613-6.52Zm9.581-2.009a1.93,1.93,0,0,1-.048.423l-.174.7H533.983l.786-3.172H544.9a3.45,3.45,0,0,1,2.068.582A1.784,1.784,0,0,1,547.786,561.534Zm-.44,2.009-1.609,6.52H541.3l1.609-6.52Z" transform="translate(-369.859 -355.434)" fill="#fff"/>
    <path id="Path_107" data-name="Path 107" d="M620.6,548.3a7.542,7.542,0,0,1-4.478-1.351,5.808,5.808,0,0,1-2.55-4.813,6.147,6.147,0,0,1,.157-1.379s.148-.614.975-4.075a4.1,4.1,0,0,1,.179-.567c.018-.113.04-.226.068-.338l.172-.7a6.913,6.913,0,0,1,3.334-4.308,9.112,9.112,0,0,1,4.767-1.317h10.126a4.137,4.137,0,0,1,4,5.163l-.808,3.172c-.026.1-.055.2-.087.3a4.2,4.2,0,0,1-.1.552l-1,4.053a6.884,6.884,0,0,1-3.326,4.3,9.1,9.1,0,0,1-4.767,1.317Z" transform="translate(-440.052 -329.536)" fill="#fff"/>
    <path id="Path_108" data-name="Path 108" d="M629.218,555.578a6.187,6.187,0,0,1-3.676-1.095,4.464,4.464,0,0,1-1.972-3.69,4.733,4.733,0,0,1,.121-1.066l.965-4.068a2.82,2.82,0,0,1,.181-.52,2.723,2.723,0,0,1,.065-.378l.174-.7a5.546,5.546,0,0,1,2.7-3.447,7.735,7.735,0,0,1,4.056-1.12h10.14a2.758,2.758,0,0,1,2.672,3.439l-.808,3.172a3.068,3.068,0,0,1-.11.341,2.826,2.826,0,0,1-.077.521l-1,4.053a5.554,5.554,0,0,1-2.7,3.448,7.747,7.747,0,0,1-4.056,1.118Z" transform="translate(-448.673 -338.191)" fill="#fff"/>
    <path id="Path_109" data-name="Path 109" d="M637.839,562.82a4.8,4.8,0,0,1-2.875-.838,3.069,3.069,0,0,1-1.394-2.568,3.323,3.323,0,0,1,.086-.753l.965-4.061a1.378,1.378,0,0,1,.207-.463,1.393,1.393,0,0,1,.037-.426l.172-.7a4.213,4.213,0,0,1,2.069-2.6,6.377,6.377,0,0,1,3.343-.92h10.143a1.379,1.379,0,0,1,1.332,1.725l-.808,3.172a1.34,1.34,0,0,0-.19.87l-1,4.053a4.211,4.211,0,0,1-2.068,2.6,6.388,6.388,0,0,1-3.344.921Z" transform="translate(-457.294 -346.812)" fill="#fff"/>
    <path id="Path_110" data-name="Path 110" d="M658.25,563.525l-1,4.053a2.876,2.876,0,0,1-1.445,1.744,5,5,0,0,1-2.631.723H646.5a3.457,3.457,0,0,1-2.068-.582,1.743,1.743,0,0,1-.815-1.445,1.919,1.919,0,0,1,.05-.44l.965-4.053H649.1l-.827,3.348h4.709l.218-.881h-1.976l.594-2.467Zm1-4.054-.808,3.172H644.874l.172-.7a2.875,2.875,0,0,1,1.445-1.746,5,5,0,0,1,2.631-.723Z" transform="translate(-465.958 -355.416)" fill="#fff"/>
    <path id="Path_111" data-name="Path 111" d="M20.04,654.6a4.137,4.137,0,0,1-4.091-3.511l-.092.368a4.129,4.129,0,0,1-4.016,3.143H4.146a4.137,4.137,0,0,1-4.014-5.131l2.8-11.3a4.135,4.135,0,0,1,.263-.746,4.151,4.151,0,0,1,.116-.781l1.361-5.5A4.137,4.137,0,0,1,8.684,628H26.233a10.1,10.1,0,0,1,6,1.778,7.129,7.129,0,0,1,3.147,5.9,7.394,7.394,0,0,1-.193,1.671c0,.008-.31,1.269-.31,1.269a4.135,4.135,0,0,1-.266.756,4.12,4.12,0,0,1-.1.7,5.738,5.738,0,0,1-1.008,2.148,5.638,5.638,0,0,1,.068.587c.021.21.032.414.032.627a4.125,4.125,0,0,1-.127,1.015L31.7,651.471a4.137,4.137,0,0,1-4.01,3.122Z" transform="translate(88.898 -414.497)" fill="#fff"/>
    <path id="Path_112" data-name="Path 112" d="M28.657,661.839a2.758,2.758,0,0,1-2.678-3.419l.889-3.6H24.354l-1.219,4.927a2.758,2.758,0,0,1-2.678,2.088H12.763a2.758,2.758,0,0,1-2.677-3.42l2.8-11.3a2.758,2.758,0,0,1,.3-.738,2.75,2.75,0,0,1,.079-.79l1.361-5.5A2.758,2.758,0,0,1,17.3,638H34.85a8.774,8.774,0,0,1,5.2,1.517,5.79,5.79,0,0,1,2.569,4.778,5.987,5.987,0,0,1-.157,1.358l-.308,1.254a2.594,2.594,0,0,0-.367,1.478,4.688,4.688,0,0,1-1.165,2.11,4.1,4.1,0,0,1,.194,1.041,5,5,0,0,1,.028.517,2.736,2.736,0,0,1-.085.677l-1.776,7.019a2.758,2.758,0,0,1-2.673,2.081Z" transform="translate(80.281 -423.118)" fill="#fff"/>
    <path id="Path_113" data-name="Path 113" d="M37.28,669.072a1.379,1.379,0,0,1-1.339-1.709l1.311-5.306H31.9l-1.48,5.968a1.379,1.379,0,0,1-1.339,1.047H21.386a1.379,1.379,0,0,1-1.338-1.71l2.8-11.3a1.379,1.379,0,0,1,.427-.7,1.392,1.392,0,0,1-.05-.827l1.362-5.5a1.379,1.379,0,0,1,1.338-1.048H43.473a7.413,7.413,0,0,1,4.4,1.265,4.387,4.387,0,0,1,1.99,3.656,4.573,4.573,0,0,1-.121,1.045l-.3,1.241a1.339,1.339,0,0,0-.372,1.5,3.918,3.918,0,0,1-1.492,2.093,2.99,2.99,0,0,1,.49,1.473,3.425,3.425,0,0,1,.025.414,1.391,1.391,0,0,1-.043.338l-1.776,7.021a1.379,1.379,0,0,1-1.338,1.04Z" transform="translate(71.658 -431.73)" fill="#fff"/>
    <path id="Path_114" data-name="Path 114" d="M56.331,665.033q-.214.947-2.188,2.139a2.8,2.8,0,0,1,1.156,1.834,2.265,2.265,0,0,1,.022.3l-1.776,7.019H45.894l1.733-7.022H39.434l-1.739,7.015H30l2.8-11.29Zm.764-3.481a3.239,3.239,0,0,1-.085.734l-.3,1.22H33.172L34.538,658H52.087a6.038,6.038,0,0,1,3.6,1.008,3.017,3.017,0,0,1,1.412,2.537Z" transform="translate(63.044 -440.36)" fill="#fff"/>
    <path id="Path_115" data-name="Path 115" d="M199.356,654.6a4.137,4.137,0,0,1-3.774-2.443H194.2l-.256.429A4.156,4.156,0,0,1,190.4,654.6h-7.722a4.137,4.137,0,0,1-3.551-6.261l6.757-11.3a4.156,4.156,0,0,1,.539-.716,4.242,4.242,0,0,1,.374-.812l3.288-5.5A4.158,4.158,0,0,1,193.621,628h11.557a4.125,4.125,0,0,1,4.115,3.723l.552,5.5a4.125,4.125,0,0,0,.171,1.522l1.156,11.3a4.137,4.137,0,0,1-4.116,4.551Z" transform="translate(-65.008 -414.497)" fill="#fff"/>
    <path id="Path_116" data-name="Path 116" d="M207.936,661.839A2.758,2.758,0,0,1,205.2,659.4h-3.2l-.658,1.1a2.758,2.758,0,0,1-2.368,1.342h-7.722a2.758,2.758,0,0,1-2.368-4.173l6.757-11.3a2.765,2.765,0,0,0,.913-1.528l3.288-5.5A2.758,2.758,0,0,1,202.2,638h11.557a2.758,2.758,0,0,1,2.743,2.482l.552,5.5a2.743,2.743,0,0,1-.026.745,2.8,2.8,0,0,1,.2.779l1.156,11.3a2.758,2.758,0,0,1-2.744,3.034Z" transform="translate(-73.588 -423.118)" fill="#fff"/>
    <path id="Path_117" data-name="Path 117" d="M216.554,669.107a1.379,1.379,0,0,1-1.371-1.241l-.127-1.208h-5.228l-1.059,1.778a1.379,1.379,0,0,1-1.183.672h-7.722a1.379,1.379,0,0,1-1.185-2.086l6.757-11.3a1.381,1.381,0,0,0,.914-1.527l3.286-5.5a1.379,1.379,0,0,1,1.183-.672h11.557a1.379,1.379,0,0,1,1.371,1.241l.552,5.5a1.381,1.381,0,0,0,.171,1.525l1.156,11.3a1.379,1.379,0,0,1-1.372,1.517Zm-2.223-9.773-.017-.148-.087.148Z" transform="translate(-82.206 -431.765)" fill="#fff"/>
    <path id="Path_118" data-name="Path 118" d="M232.885,676.323h-7.7l-.255-2.442h-7.252l-1.46,2.442H208.49l6.757-11.3h7.722l-2.537,4.275H224.5l-.472-4.275h7.7ZM231.558,663.5h-15.4l3.286-5.5H231Z" transform="translate(-90.832 -440.36)" fill="#fff"/>
    <path id="Path_119" data-name="Path 119" d="M379.124,654.6a10.1,10.1,0,0,1-6-1.776,7.133,7.133,0,0,1-3.147-5.9,7.373,7.373,0,0,1,.193-1.67c0-.014,0-.023.7-2.81a4.129,4.129,0,0,1,4.014-3.13h7.693a4.111,4.111,0,0,1,3.21,1.517h1.321l.659-2.653a4.116,4.116,0,0,1,.214-.637,4.059,4.059,0,0,1,.127-.918l1.4-5.5A4.137,4.137,0,0,1,393.518,628h7.692a4.137,4.137,0,0,1,4.009,5.159l-1.4,5.5a4.041,4.041,0,0,1-.206.608,4.107,4.107,0,0,1-.12.888l-1.732,7.022a8.96,8.96,0,0,1-4.384,5.575,12.79,12.79,0,0,1-6.7,1.845Z" transform="translate(-230.053 -414.497)" fill="#fff"/>
    <path id="Path_120" data-name="Path 120" d="M387.762,661.839a8.774,8.774,0,0,1-5.2-1.517A5.788,5.788,0,0,1,380,655.539a5.988,5.988,0,0,1,.157-1.358c0-.014.689-2.79.689-2.79a2.758,2.758,0,0,1,2.679-2.084h7.695a2.758,2.758,0,0,1,2.173,1.06,2.706,2.706,0,0,1,.294.466h3.143l.914-3.7a2.825,2.825,0,0,0,.339-1.546l1.4-5.5A2.758,2.758,0,0,1,402.156,638h7.692a2.758,2.758,0,0,1,2.672,3.447l-1.4,5.5a2.755,2.755,0,0,1-.254.647,2.831,2.831,0,0,1-.073.859l-1.733,7.023A7.634,7.634,0,0,1,405.3,660.2a11.417,11.417,0,0,1-5.982,1.655Z" transform="translate(-238.691 -423.118)" fill="#fff"/>
    <path id="Path_121" data-name="Path 121" d="M396.383,669.107a7.416,7.416,0,0,1-4.4-1.263A4.393,4.393,0,0,1,390,664.186a4.647,4.647,0,0,1,.121-1.045l.689-2.769a1.379,1.379,0,0,1,1.339-1.045h7.695a1.379,1.379,0,0,1,1.368,1.524h5.319l1.174-4.752a1.386,1.386,0,0,1,.4-.676,1.371,1.371,0,0,1-.059-.861l1.4-5.494a1.379,1.379,0,0,1,1.336-1.038h7.692a1.379,1.379,0,0,1,1.336,1.72l-1.4,5.5a1.366,1.366,0,0,0-.33,1.517l-1.739,7.022a6.316,6.316,0,0,1-3.13,3.874,10.057,10.057,0,0,1-5.271,1.449Z" transform="translate(-247.312 -431.765)" fill="#fff"/>
    <path id="Path_122" data-name="Path 122" d="M425.357,665.033l-1.733,7.023a4.982,4.982,0,0,1-2.5,3.023,8.659,8.659,0,0,1-4.551,1.251H405a6.049,6.049,0,0,1-3.6-1.007A3.006,3.006,0,0,1,400,672.781a3.237,3.237,0,0,1,.085-.732l.69-2.748h7.695l-.388,1.524h8.15l1.433-5.792ZM427.09,658l-1.4,5.5H418l1.4-5.5Z" transform="translate(-255.933 -440.36)" fill="#fff"/>
    <path id="Path_123" data-name="Path 123" d="M562.505,654.6a4.137,4.137,0,0,1-3.776-2.442h-1.379l-.255.429a4.158,4.158,0,0,1-3.551,2.013h-7.722a4.137,4.137,0,0,1-3.549-6.261l6.757-11.3a4.173,4.173,0,0,0,.914-1.527l3.286-5.5A4.16,4.16,0,0,1,556.77,628h11.556a4.126,4.126,0,0,1,4.116,3.723l.552,5.5a4,4,0,0,0,.177,1.524l1.156,11.3a4.137,4.137,0,0,1-4.115,4.551Z" transform="translate(-378.081 -414.497)" fill="#fff"/>
    <path id="Path_124" data-name="Path 124" d="M571.085,661.839a2.758,2.758,0,0,1-2.74-2.442h-3.2l-.658,1.1a2.758,2.758,0,0,1-2.366,1.342h-7.722a2.758,2.758,0,0,1-2.366-4.173l6.757-11.3a2.765,2.765,0,0,0,.913-1.528l3.288-5.5A2.758,2.758,0,0,1,565.349,638h11.556a2.758,2.758,0,0,1,2.744,2.482l.552,5.5a2.745,2.745,0,0,0,.171,1.524l1.156,11.3a2.758,2.758,0,0,1-2.744,3.034Z" transform="translate(-386.66 -423.118)" fill="#fff"/>
    <path id="Path_125" data-name="Path 125" d="M579.664,669.107a1.379,1.379,0,0,1-1.371-1.241l-.127-1.208h-5.228l-1.059,1.778a1.379,1.379,0,0,1-1.183.67h-7.722a1.379,1.379,0,0,1-1.19-2.085l6.757-11.3a1.378,1.378,0,0,0,.913-1.527l3.288-5.5a1.379,1.379,0,0,1,1.183-.672h11.556a1.379,1.379,0,0,1,1.379,1.241l.552,5.5a1.374,1.374,0,0,0,.171,1.525l1.156,11.3a1.379,1.379,0,0,1-1.379,1.517Zm-2.224-9.773-.015-.146-.088.146Z" transform="translate(-395.24 -431.764)" fill="#fff"/>
    <path id="Path_126" data-name="Path 126" d="M596.024,676.323h-7.7l-.257-2.442h-7.251l-1.46,2.442H571.63l6.757-11.3h7.72l-2.537,4.275h4.067l-.472-4.275h7.7ZM594.7,663.5H579.3l3.286-5.5h11.556Z" transform="translate(-403.895 -440.36)" fill="#fff"/>
    <path id="Path_127" data-name="Path 127" d="M50.243,555.652a2.758,2.758,0,0,1-2.677-3.42l1.613-6.521a2.907,2.907,0,0,1,.146-.436,2.81,2.81,0,0,1,.073-.448l.786-3.172a2.758,2.758,0,0,1,2.677-2.095H63.48a6.2,6.2,0,0,1,3.676,1.094,4.481,4.481,0,0,1,1.972,3.708,4.67,4.67,0,0,1-.121,1.049c0,.01-.181.736-.181.736a2.735,2.735,0,0,1-.152.45,2.8,2.8,0,0,1-.059.383,3.615,3.615,0,0,1-.531,1.22,3.415,3.415,0,0,1,.032.461,3.475,3.475,0,0,1-.112.865l-.389,1.557a5.554,5.554,0,0,1-2.7,3.447,7.747,7.747,0,0,1-4.056,1.118Z" transform="translate(47.97 -338.253)" fill="#070707" stroke="#231f20" stroke-linecap="round" stroke-linejoin="round" stroke-width="0.25"/>
    <path id="Path_128" data-name="Path 128" d="M83.176,563.663q-.124.552-1.26,1.234a1.592,1.592,0,0,1,.689,1.056.706.706,0,0,1-.025.176l-.4,1.586a2.869,2.869,0,0,1-1.445,1.744,4.989,4.989,0,0,1-2.631.723H67.49l1.613-6.52Zm.444-2.009a1.849,1.849,0,0,1-.05.423l-.172.7H69.321l.786-3.172H80.726a3.489,3.489,0,0,1,2.075.582,1.742,1.742,0,0,1,.819,1.458Zm-5.479,4.476h-5.2l-.218.881h5.207Z" transform="translate(30.724 -355.538)" fill="#070707" stroke="#231f20" stroke-linecap="round" stroke-linejoin="round" stroke-width="0.25"/>
    <path id="Path_129" data-name="Path 129" d="M161.167,555.669a2.758,2.758,0,0,1-2.671-3.42l1.613-6.521a2.9,2.9,0,0,1,.146-.433,2.811,2.811,0,0,1,.073-.448l.786-3.172a2.758,2.758,0,0,1,2.677-2.095h12.352A2.758,2.758,0,0,1,178.82,543l-.79,3.172a2.77,2.77,0,0,1-.15.441,2.884,2.884,0,0,1-.068.414l-.594,2.467a2.79,2.79,0,0,1-.153.458,2.757,2.757,0,0,1-.073.445l-.79,3.172a2.758,2.758,0,0,1-2.677,2.091Z" transform="translate(-47.663 -338.27)" fill="#070707" stroke="#231f20" stroke-linecap="round" stroke-linejoin="round" stroke-width="0.25"/>
    <path id="Path_130" data-name="Path 130" d="M192.328,563.663l-.594,2.467h-7.92l-.218.881h7.915l-.79,3.172H178.37l1.615-6.52Zm1.012-4.053-.79,3.172H180.2l.786-3.172Z" transform="translate(-64.866 -355.538)" fill="#070707" stroke="#231f20" stroke-linecap="round" stroke-linejoin="round" stroke-width="0.25"/>
    <path id="Path_131" data-name="Path 131" d="M275.615,555.669a2.758,2.758,0,0,1-2.678-3.417l.98-3.984h-1.045a2.758,2.758,0,0,1-2.675-3.426l.79-3.172a2.758,2.758,0,0,1,2.677-2.091H287.25a2.758,2.758,0,0,1,2.677,3.425l-.79,3.172a2.758,2.758,0,0,1-2.677,2.091h-2.416l-1.306,5.3a2.758,2.758,0,0,1-2.678,2.1Z" transform="translate(-143.96 -338.27)" fill="#070707" stroke="#231f20" stroke-linecap="round" stroke-linejoin="round" stroke-width="0.25"/>
    <path id="Path_132" data-name="Path 132" d="M304.527,559.58l-.79,3.172H290.15l.79-3.172Zm-5.589,4.057-1.607,6.52h-4.445l1.611-6.52Z" transform="translate(-161.231 -355.512)" fill="#070707" stroke="#231f20" stroke-linecap="round" stroke-linejoin="round" stroke-width="0.25"/>
    <path id="Path_133" data-name="Path 133" d="M383.135,555.669a2.758,2.758,0,0,1-2.678-3.417l.982-3.984h-1.045a2.758,2.758,0,0,1-2.677-3.426l.79-3.172a2.758,2.758,0,0,1,2.677-2.091h13.587a2.758,2.758,0,0,1,2.675,3.425l-.79,3.172a2.758,2.758,0,0,1-2.677,2.091h-2.42l-1.306,5.3a2.758,2.758,0,0,1-2.678,2.1Z" transform="translate(-236.652 -338.27)" fill="#070707" stroke="#231f20" stroke-linecap="round" stroke-linejoin="round" stroke-width="0.25"/>
    <path id="Path_134" data-name="Path 134" d="M412.017,559.58l-.79,3.172H397.64l.79-3.172Zm-5.59,4.057-1.605,6.52h-4.44l1.607-6.52Z" transform="translate(-253.898 -355.512)" fill="#070707" stroke="#231f20" stroke-linecap="round" stroke-linejoin="round" stroke-width="0.25"/>
    <path id="Path_135" data-name="Path 135" d="M474.662,555.712a2.758,2.758,0,0,1-2.678-3.421l1.616-6.52a2.6,2.6,0,0,1,.116-.36,2.694,2.694,0,0,1,.081-.541l.811-3.172a2.758,2.758,0,0,1,2.673-2.069h4.44a2.758,2.758,0,0,1,2.672,3.441l-.811,3.172a2.834,2.834,0,0,1-.112.342,2.689,2.689,0,0,1-.077.52l-1.615,6.52a2.758,2.758,0,0,1-2.677,2.095Z" transform="translate(-317.92 -338.313)" fill="#070707" stroke="#231f20" stroke-linecap="round" stroke-linejoin="round" stroke-width="0.25"/>
    <path id="Path_136" data-name="Path 136" d="M497.965,563.663l-1.615,6.52h-4.44l1.615-6.52Zm1-4.053-.811,3.172h-4.443l.811-3.172Z" transform="translate(-335.169 -355.538)" fill="#070707" stroke="#231f20" stroke-linecap="round" stroke-linejoin="round" stroke-width="0.25"/>
    <path id="Path_137" data-name="Path 137" d="M525.151,555.652a2.758,2.758,0,0,1-2.172-1.058,2.616,2.616,0,0,1-.182-.262,2.758,2.758,0,0,1-2.353,1.32H516a2.758,2.758,0,0,1-2.677-3.42l1.615-6.521a2.752,2.752,0,0,1,.146-.436,2.808,2.808,0,0,1,.072-.448l.786-3.172a2.758,2.758,0,0,1,2.677-2.095H528.75a6.2,6.2,0,0,1,3.676,1.094,4.481,4.481,0,0,1,1.972,3.708,4.637,4.637,0,0,1-.12,1.047l-.182.739a2.772,2.772,0,0,1-.148.439,2.612,2.612,0,0,1-.072.445l-1.609,6.517a2.758,2.758,0,0,1-2.677,2.1Z" transform="translate(-353.562 -338.253)" fill="#070707" stroke="#231f20" stroke-linecap="round" stroke-linejoin="round" stroke-width="0.25"/>
    <path id="Path_138" data-name="Path 138" d="M539.3,563.637l-1.613,6.52h-4.44l1.62-6.52Zm9.583-2.009a1.845,1.845,0,0,1-.05.423l-.176.7H535.083l.785-3.172H546a3.485,3.485,0,0,1,2.075.582,1.739,1.739,0,0,1,.815,1.462Zm-.44,2.009-1.609,6.52H542.4l1.609-6.52Z" transform="translate(-370.808 -355.512)" fill="#070707" stroke="#231f20" stroke-linecap="round" stroke-linejoin="round" stroke-width="0.25"/>
    <path id="Path_139" data-name="Path 139" d="M630.318,555.677a6.2,6.2,0,0,1-3.676-1.094,4.463,4.463,0,0,1-1.972-3.69,4.744,4.744,0,0,1,.121-1.067l.972-4.068a2.858,2.858,0,0,1,.181-.52,2.721,2.721,0,0,1,.065-.376l.174-.706a5.542,5.542,0,0,1,2.7-3.448,7.747,7.747,0,0,1,4.056-1.118h10.129a2.758,2.758,0,0,1,2.672,3.439l-.808,3.172a2.948,2.948,0,0,1-.11.339,2.8,2.8,0,0,1-.077.521l-1,4.052a5.56,5.56,0,0,1-2.7,3.448,7.747,7.747,0,0,1-4.058,1.117Z" transform="translate(-449.621 -338.278)" fill="#070707" stroke="#231f20" stroke-linecap="round" stroke-linejoin="round" stroke-width="0.25"/>
    <path id="Path_140" data-name="Path 140" d="M659.35,563.662l-1,4.053a2.882,2.882,0,0,1-1.445,1.744,4.989,4.989,0,0,1-2.631.719H647.6a3.454,3.454,0,0,1-2.068-.582,1.746,1.746,0,0,1-.815-1.444,1.924,1.924,0,0,1,.05-.441l.965-4.053H650.2l-.827,3.348h4.709l.218-.881h-1.978l.593-2.467Zm1-4.053-.808,3.172H645.974l.172-.7a2.875,2.875,0,0,1,1.445-1.744,5,5,0,0,1,2.631-.723Z" transform="translate(-466.906 -355.537)" fill="#070707" stroke="#231f20" stroke-linecap="round" stroke-linejoin="round" stroke-width="0.25"/>
    <path id="Path_141" data-name="Path 141" d="M29.757,661.969a2.758,2.758,0,0,1-2.678-3.42l.889-3.613H25.454l-1.219,4.927a2.758,2.758,0,0,1-2.678,2.106H13.864a2.758,2.758,0,0,1-2.677-3.426l2.8-11.3a2.685,2.685,0,0,1,.3-.736,2.789,2.789,0,0,1,.077-.79l1.362-5.5A2.758,2.758,0,0,1,18.4,638.13H35.95a8.764,8.764,0,0,1,5.2,1.517,5.8,5.8,0,0,1,2.569,4.78,5.967,5.967,0,0,1-.157,1.357l-.308,1.253a2.595,2.595,0,0,0-.367,1.48,4.67,4.67,0,0,1-1.167,2.108,3.988,3.988,0,0,1,.194,1.041,4.665,4.665,0,0,1,.028.519,2.722,2.722,0,0,1-.084.676l-1.776,7.019a2.758,2.758,0,0,1-2.674,2.089Z" transform="translate(79.333 -423.23)" fill="#070707"/>
    <path id="Path_142" data-name="Path 142" d="M57.434,665.152q-.215.947-2.19,2.139a2.776,2.776,0,0,1,1.156,1.833,2.078,2.078,0,0,1,.022.306l-1.771,7.023H47l1.733-7.033H40.542L38.8,676.453H31.11l2.8-11.3Zm.764-3.481a3.238,3.238,0,0,1-.085.732l-.294,1.224H34.286l1.36-5.5H53.2a6.049,6.049,0,0,1,3.6,1.007,3.008,3.008,0,0,1,1.412,2.535Z" transform="translate(62.087 -440.472)" fill="#070707"/>
    <path id="Path_143" data-name="Path 143" d="M209.031,661.969a2.758,2.758,0,0,1-2.74-2.444h-3.2l-.658,1.1a2.758,2.758,0,0,1-2.366,1.34h-7.722a2.758,2.758,0,0,1-2.368-4.174l6.757-11.3a2.765,2.765,0,0,0,.913-1.528l3.288-5.5a2.758,2.758,0,0,1,2.361-1.345h11.556a2.758,2.758,0,0,1,2.744,2.482l.552,5.5a2.634,2.634,0,0,0,.179,1.52l1.156,11.3a2.758,2.758,0,0,1-2.744,3.034Z" transform="translate(-74.532 -423.23)" fill="#070707"/>
    <path id="Path_144" data-name="Path 144" d="M233.985,676.453h-7.7l-.255-2.444h-7.252l-1.46,2.444H209.59l6.757-11.3h7.722l-2.537,4.275H225.6l-.472-4.275h7.7Zm-1.327-12.825h-15.4l3.282-5.5H232.1Z" transform="translate(-91.781 -440.472)" fill="#070707"/>
    <path id="Path_145" data-name="Path 145" d="M388.845,661.934a8.781,8.781,0,0,1-5.2-1.517,5.791,5.791,0,0,1-2.568-4.78,5.973,5.973,0,0,1,.157-1.357c0-.014.689-2.79.689-2.79a2.758,2.758,0,0,1,2.681-2.106H392.3a2.765,2.765,0,0,1,2.468,1.527h3.143l.914-3.7a2.8,2.8,0,0,1,.261-.666,2.758,2.758,0,0,1,.077-.88l1.4-5.5a2.758,2.758,0,0,1,2.674-2.077h7.692a2.758,2.758,0,0,1,2.673,3.438l-1.4,5.5a2.688,2.688,0,0,0-.328,1.506l-1.732,7.022a7.64,7.64,0,0,1-3.758,4.724,11.423,11.423,0,0,1-5.982,1.655Z" transform="translate(-239.622 -423.195)" fill="#070707"/>
    <path id="Path_146" data-name="Path 146" d="M426.443,665.152l-1.736,7.026a4.982,4.982,0,0,1-2.5,3.023,8.663,8.663,0,0,1-4.551,1.252H406.087a6.039,6.039,0,0,1-3.6-1.008,3.014,3.014,0,0,1-1.412-2.535,3.237,3.237,0,0,1,.086-.732l.69-2.748h7.695l-.381,1.526h8.151l1.433-5.8Zm1.733-7.022-1.4,5.5h-7.691l1.4-5.5Z" transform="translate(-256.864 -440.472)" fill="#070707"/>
    <path id="Path_147" data-name="Path 147" d="M572.18,661.969a2.758,2.758,0,0,1-2.74-2.444h-3.2l-.658,1.1a2.758,2.758,0,0,1-2.366,1.34H555.49a2.758,2.758,0,0,1-2.366-4.174l6.757-11.3a2.758,2.758,0,0,0,.914-1.528l3.282-5.5a2.758,2.758,0,0,1,2.366-1.342H578a2.758,2.758,0,0,1,2.744,2.482l.552,5.5a2.779,2.779,0,0,0,.171,1.524l1.156,11.3a2.758,2.758,0,0,1-2.743,3.034Z" transform="translate(-387.603 -423.23)" fill="#070707"/>
    <path id="Path_148" data-name="Path 148" d="M597.125,676.47h-7.7l-.257-2.444h-7.251l-1.46,2.444H572.73l6.757-11.3h7.72l-2.537,4.275h4.065l-.47-4.275h7.7ZM595.8,663.645H580.4l3.288-5.5h11.56Z" transform="translate(-404.844 -440.489)" fill="#070707"/>
    <path id="Path_149" data-name="Path 149" d="M241.616,588.433,227.235,559.58H163.5l7.06,24.89Z" transform="translate(-52.046 -355.512)"/>
    <path id="Path_150" data-name="Path 150" d="M83.176,563.663q-.124.552-1.26,1.234a1.592,1.592,0,0,1,.689,1.056.706.706,0,0,1-.025.176l-.4,1.586a2.869,2.869,0,0,1-1.445,1.744,4.989,4.989,0,0,1-2.631.723H67.49l1.613-6.52Zm.444-2.009a1.849,1.849,0,0,1-.05.423l-.172.7H69.321l.786-3.172H80.726a3.489,3.489,0,0,1,2.075.582,1.742,1.742,0,0,1,.819,1.458Zm-5.479,4.476h-5.2l-.218.881h5.207Z" transform="translate(30.724 -355.538)" fill="#fff" stroke="#231f20" stroke-linecap="round" stroke-linejoin="round" stroke-width="0.25"/>
    <path id="Path_151" data-name="Path 151" d="M192.328,563.663l-.594,2.467h-7.92l-.218.881h7.915l-.79,3.172H178.37l1.615-6.52Zm1.012-4.053-.79,3.172H180.2l.786-3.172Z" transform="translate(-64.866 -355.538)" fill="#fff" stroke="#231f20" stroke-linecap="round" stroke-linejoin="round" stroke-width="0.25"/>
    <path id="Path_152" data-name="Path 152" d="M304.527,559.58l-.79,3.172H290.15l.79-3.172Zm-5.589,4.057-1.607,6.52h-4.445l1.611-6.52Z" transform="translate(-161.231 -355.512)" fill="#fff" stroke="#231f20" stroke-linecap="round" stroke-linejoin="round" stroke-width="0.25"/>
    <path id="Path_153" data-name="Path 153" d="M412.017,559.58l-.79,3.172H397.64l.79-3.172Zm-5.59,4.057-1.605,6.52h-4.44l1.607-6.52Z" transform="translate(-253.898 -355.512)" fill="#fff" stroke="#231f20" stroke-linecap="round" stroke-linejoin="round" stroke-width="0.25"/>
    <path id="Path_154" data-name="Path 154" d="M497.965,563.663l-1.615,6.52h-4.44l1.615-6.52Zm1-4.053-.811,3.172h-4.443l.811-3.172Z" transform="translate(-335.169 -355.538)" fill="#fff" stroke="#231f20" stroke-linecap="round" stroke-linejoin="round" stroke-width="0.25"/>
    <path id="Path_155" data-name="Path 155" d="M539.3,563.637l-1.613,6.52h-4.44l1.62-6.52Zm9.583-2.009a1.845,1.845,0,0,1-.05.423l-.176.7H535.083l.785-3.172H546a3.485,3.485,0,0,1,2.075.582,1.739,1.739,0,0,1,.815,1.462Zm-.44,2.009-1.609,6.52H542.4l1.609-6.52Z" transform="translate(-370.808 -355.512)" fill="#fff" stroke="#231f20" stroke-linecap="round" stroke-linejoin="round" stroke-width="0.25"/>
    <path id="Path_156" data-name="Path 156" d="M659.35,563.662l-1,4.053a2.882,2.882,0,0,1-1.445,1.744,4.989,4.989,0,0,1-2.631.719H647.6a3.454,3.454,0,0,1-2.068-.582,1.746,1.746,0,0,1-.815-1.444,1.924,1.924,0,0,1,.05-.441l.965-4.053H650.2l-.827,3.348h4.709l.218-.881h-1.978l.593-2.467Zm1-4.053-.808,3.172H645.974l.172-.7a2.875,2.875,0,0,1,1.445-1.744,5,5,0,0,1,2.631-.723Z" transform="translate(-466.906 -355.537)" fill="#fff" stroke="#231f20" stroke-linecap="round" stroke-linejoin="round" stroke-width="0.25"/>
    <path id="Path_157" data-name="Path 157" d="M57.434,665.152q-.215.947-2.19,2.139a2.776,2.776,0,0,1,1.156,1.833,2.078,2.078,0,0,1,.022.306l-1.771,7.023H47l1.733-7.033H40.542L38.8,676.453H31.11l2.8-11.3Zm.764-3.481a3.238,3.238,0,0,1-.085.732l-.294,1.224H34.286l1.36-5.5H53.2a6.049,6.049,0,0,1,3.6,1.007,3.008,3.008,0,0,1,1.412,2.535Z" transform="translate(62.087 -440.472)" fill="#fff"/>
    <path id="Path_158" data-name="Path 158" d="M233.985,676.453h-7.7l-.255-2.444h-7.252l-1.46,2.444H209.59l6.757-11.3h7.722l-2.537,4.275H225.6l-.472-4.275h7.7Zm-1.327-12.825h-15.4l3.282-5.5H232.1Z" transform="translate(-91.781 -440.472)" fill="#fff"/>
    <path id="Path_159" data-name="Path 159" d="M426.443,665.152l-1.736,7.026a4.982,4.982,0,0,1-2.5,3.023,8.663,8.663,0,0,1-4.551,1.252H406.087a6.039,6.039,0,0,1-3.6-1.008,3.014,3.014,0,0,1-1.412-2.535,3.237,3.237,0,0,1,.086-.732l.69-2.748h7.695l-.381,1.526h8.151l1.433-5.8Zm1.733-7.022-1.4,5.5h-7.691l1.4-5.5Z" transform="translate(-256.864 -440.472)" fill="#fff"/>
    <path id="Path_160" data-name="Path 160" d="M597.125,676.47h-7.7l-.257-2.444h-7.251l-1.46,2.444H572.73l6.757-11.3h7.72l-2.537,4.275h4.065l-.47-4.275h7.7ZM595.8,663.645H580.4l3.288-5.5h11.56Z" transform="translate(-404.844 -440.489)" fill="#fff"/>
  </g>
</svg>
