<svg xmlns="http://www.w3.org/2000/svg" width="100.249" height="31.928" viewBox="0 0 100.249 31.928">
  <g id="Group_6" data-name="Group 6" transform="translate(-93.044 -204.053)">
    <path id="Path_86" data-name="Path 86" d="M82.119,563.543q-.124.552-1.26,1.233a1.6,1.6,0,0,1,.689,1.058.648.648,0,0,1-.025.176l-.389,1.586a2.869,2.869,0,0,1-1.445,1.744,5,5,0,0,1-2.631.723H66.44l1.615-6.52Zm.444-2.009a1.857,1.857,0,0,1-.05.423l-.172.7H68.264l.786-3.172H79.669a3.454,3.454,0,0,1,2.069.582A1.791,1.791,0,0,1,82.563,561.534Zm-5.479,4.476H71.876l-.218.881h5.2Z" transform="translate(31.629 -355.434)" fill="#fff"/>
    <path id="Path_90" data-name="Path 90" d="M191.228,563.534,190.634,566h-7.92l-.218.881h7.917l-.792,3.172H177.27l1.618-6.52Zm1.012-4.054-.79,3.172H179.1l.786-3.172Z" transform="translate(-63.917 -355.426)" fill="#fff"/>
    <path id="Path_94" data-name="Path 94" d="M303.427,559.48l-.79,3.172H289.05l.792-3.172Zm-5.589,4.054-1.607,6.52h-4.439l1.605-6.52Z" transform="translate(-160.283 -355.426)" fill="#fff"/>
    <path id="Path_98" data-name="Path 98" d="M410.917,559.48l-.79,3.172H396.54l.79-3.172Zm-5.59,4.054-1.605,6.52h-4.44l1.607-6.52Z" transform="translate(-252.95 -355.426)" fill="#fff"/>
    <path id="Path_102" data-name="Path 102" d="M496.857,563.534l-1.616,6.52H490.8l1.615-6.52Zm1-4.054-.811,3.172h-4.44l.811-3.172Z" transform="translate(-334.212 -355.426)" fill="#fff"/>
    <path id="Path_106" data-name="Path 106" d="M538.205,563.543l-1.615,6.52h-4.44l1.613-6.52Zm9.581-2.009a1.93,1.93,0,0,1-.048.423l-.174.7H533.983l.786-3.172H544.9a3.45,3.45,0,0,1,2.068.582A1.784,1.784,0,0,1,547.786,561.534Zm-.44,2.009-1.609,6.52H541.3l1.609-6.52Z" transform="translate(-369.859 -355.434)" fill="#fff"/>
    <path id="Path_110" data-name="Path 110" d="M658.25,563.525l-1,4.053a2.876,2.876,0,0,1-1.445,1.744,5,5,0,0,1-2.631.723H646.5a3.457,3.457,0,0,1-2.068-.582,1.743,1.743,0,0,1-.815-1.445,1.919,1.919,0,0,1,.05-.44l.965-4.053H649.1l-.827,3.348h4.709l.218-.881h-1.976l.594-2.467Zm1-4.054-.808,3.172H644.874l.172-.7a2.875,2.875,0,0,1,1.445-1.746,5,5,0,0,1,2.631-.723Z" transform="translate(-465.958 -355.416)" fill="#fff"/>
    <path id="Path_114" data-name="Path 114" d="M56.331,665.033q-.214.947-2.188,2.139a2.8,2.8,0,0,1,1.156,1.834,2.265,2.265,0,0,1,.022.3l-1.776,7.019H45.894l1.733-7.022H39.434l-1.739,7.015H30l2.8-11.29Zm.764-3.481a3.239,3.239,0,0,1-.085.734l-.3,1.22H33.172L34.538,658H52.087a6.038,6.038,0,0,1,3.6,1.008,3.017,3.017,0,0,1,1.412,2.537Z" transform="translate(63.044 -440.36)" fill="#fff"/>
    <path id="Path_118" data-name="Path 118" d="M232.885,676.323h-7.7l-.255-2.442h-7.252l-1.46,2.442H208.49l6.757-11.3h7.722l-2.537,4.275H224.5l-.472-4.275h7.7ZM231.558,663.5h-15.4l3.286-5.5H231Z" transform="translate(-90.832 -440.36)" fill="#fff"/>
    <path id="Path_122" data-name="Path 122" d="M425.357,665.033l-1.733,7.023a4.982,4.982,0,0,1-2.5,3.023,8.659,8.659,0,0,1-4.551,1.251H405a6.049,6.049,0,0,1-3.6-1.007A3.006,3.006,0,0,1,400,672.781a3.237,3.237,0,0,1,.085-.732l.69-2.748h7.695l-.388,1.524h8.15l1.433-5.792ZM427.09,658l-1.4,5.5H418l1.4-5.5Z" transform="translate(-255.933 -440.36)" fill="#fff"/>
    <path id="Path_126" data-name="Path 126" d="M596.024,676.323h-7.7l-.257-2.442h-7.251l-1.46,2.442H571.63l6.757-11.3h7.72l-2.537,4.275h4.067l-.472-4.275h7.7ZM594.7,663.5H579.3l3.286-5.5h11.556Z" transform="translate(-403.895 -440.36)" fill="#fff"/>
    <path id="Path_142" data-name="Path 142" d="M57.434,665.152q-.215.947-2.19,2.139a2.776,2.776,0,0,1,1.156,1.833,2.078,2.078,0,0,1,.022.306l-1.771,7.023H47l1.733-7.033H40.542L38.8,676.453H31.11l2.8-11.3Zm.764-3.481a3.238,3.238,0,0,1-.085.732l-.294,1.224H34.286l1.36-5.5H53.2a6.049,6.049,0,0,1,3.6,1.007,3.008,3.008,0,0,1,1.412,2.535Z" transform="translate(62.087 -440.472)" fill="#070707"/>
    <path id="Path_144" data-name="Path 144" d="M233.985,676.453h-7.7l-.255-2.444h-7.252l-1.46,2.444H209.59l6.757-11.3h7.722l-2.537,4.275H225.6l-.472-4.275h7.7Zm-1.327-12.825h-15.4l3.282-5.5H232.1Z" transform="translate(-91.781 -440.472)" fill="#070707"/>
    <path id="Path_146" data-name="Path 146" d="M426.443,665.152l-1.736,7.026a4.982,4.982,0,0,1-2.5,3.023,8.663,8.663,0,0,1-4.551,1.252H406.087a6.039,6.039,0,0,1-3.6-1.008,3.014,3.014,0,0,1-1.412-2.535,3.237,3.237,0,0,1,.086-.732l.69-2.748h7.695l-.381,1.526h8.151l1.433-5.8Zm1.733-7.022-1.4,5.5h-7.691l1.4-5.5Z" transform="translate(-256.864 -440.472)" fill="#070707"/>
    <path id="Path_148" data-name="Path 148" d="M597.125,676.47h-7.7l-.257-2.444h-7.251l-1.46,2.444H572.73l6.757-11.3h7.72l-2.537,4.275h4.065l-.47-4.275h7.7ZM595.8,663.645H580.4l3.288-5.5h11.56Z" transform="translate(-404.844 -440.489)" fill="#070707"/>
    <path id="Path_157" data-name="Path 157" d="M57.434,665.152q-.215.947-2.19,2.139a2.776,2.776,0,0,1,1.156,1.833,2.078,2.078,0,0,1,.022.306l-1.771,7.023H47l1.733-7.033H40.542L38.8,676.453H31.11l2.8-11.3Zm.764-3.481a3.238,3.238,0,0,1-.085.732l-.294,1.224H34.286l1.36-5.5H53.2a6.049,6.049,0,0,1,3.6,1.007,3.008,3.008,0,0,1,1.412,2.535Z" transform="translate(62.087 -440.472)" fill="#fff"/>
    <path id="Path_158" data-name="Path 158" d="M233.985,676.453h-7.7l-.255-2.444h-7.252l-1.46,2.444H209.59l6.757-11.3h7.722l-2.537,4.275H225.6l-.472-4.275h7.7Zm-1.327-12.825h-15.4l3.282-5.5H232.1Z" transform="translate(-91.781 -440.472)" fill="#fff"/>
    <path id="Path_159" data-name="Path 159" d="M426.443,665.152l-1.736,7.026a4.982,4.982,0,0,1-2.5,3.023,8.663,8.663,0,0,1-4.551,1.252H406.087a6.039,6.039,0,0,1-3.6-1.008,3.014,3.014,0,0,1-1.412-2.535,3.237,3.237,0,0,1,.086-.732l.69-2.748h7.695l-.381,1.526h8.151l1.433-5.8Zm1.733-7.022-1.4,5.5h-7.691l1.4-5.5Z" transform="translate(-256.864 -440.472)" fill="#fff"/>
    <path id="Path_160" data-name="Path 160" d="M597.125,676.47h-7.7l-.257-2.444h-7.251l-1.46,2.444H572.73l6.757-11.3h7.72l-2.537,4.275h4.065l-.47-4.275h7.7ZM595.8,663.645H580.4l3.288-5.5h11.56Z" transform="translate(-404.844 -440.489)" fill="#fff"/>
  </g>
</svg>
