<svg xmlns="http://www.w3.org/2000/svg" width="39.246" height="39.246" viewBox="0 0 39.246 39.246">
  <g id="Icon_ionic-ios-baseball" data-name="Icon ionic-ios-baseball" transform="translate(-3.375 -3.368)">
    <path id="Path_178" data-name="Path 178" d="M18.221,5.849l.915-.292a.843.843,0,0,1,1.057.538l.009.038a.843.843,0,0,1-.538,1.057l-1.085.34a.376.376,0,0,0-.245.462c.2.651.425,1.292.679,1.934.179.434.368.868.575,1.292a.381.381,0,0,0,.557.151l.8-.547a.834.834,0,0,1,1.16.226l.019.028a.834.834,0,0,1-.226,1.16l-.981.67a.377.377,0,0,0-.113.509,22.485,22.485,0,0,0,2.236,2.953.379.379,0,0,0,.547.019l.708-.708a.826.826,0,0,1,1.179,0l.028.028a.826.826,0,0,1,0,1.179l-.708.708a.379.379,0,0,0,.019.547,21.866,21.866,0,0,0,3.066,2.3.377.377,0,0,0,.509-.113l.651-.962a.836.836,0,0,1,1.16-.226l.028.019a.836.836,0,0,1,.226,1.16l-.519.764a.382.382,0,0,0,.151.557c.387.179.774.358,1.17.519.67.274,1.349.509,2.047.717a.382.382,0,0,0,.472-.245l.33-1.019a.835.835,0,0,1,1.057-.538l.038.009a.835.835,0,0,1,.538,1.057l-.264.83a.385.385,0,0,0,.292.491c.67.123,1.349.217,2.028.274h0c.009-.245.019-.5.019-.745A19.62,19.62,0,0,0,18.192,3.368c-.255,0-.5.009-.755.019.066.726.16,1.443.292,2.16A.381.381,0,0,0,18.221,5.849Z" transform="translate(4.806)" fill="#626262"/>
    <path id="Path_179" data-name="Path 179" d="M23.187,36.141a.383.383,0,0,0-.491-.3l-1.094.349a.843.843,0,0,1-1.057-.538l-.009-.038a.843.843,0,0,1,.538-1.057l1.3-.415a.38.38,0,0,0,.245-.462c-.217-.745-.472-1.472-.764-2.2-.151-.377-.311-.745-.491-1.113a.379.379,0,0,0-.557-.151l-1.028.7a.834.834,0,0,1-1.16-.226L18.6,30.66a.834.834,0,0,1,.226-1.16l1.226-.83a.377.377,0,0,0,.113-.509,21.91,21.91,0,0,0-2.34-3.123.379.379,0,0,0-.547-.019l-.934.934a.826.826,0,0,1-1.179,0l-.028-.028a.826.826,0,0,1,0-1.179l.934-.934a.379.379,0,0,0-.019-.547A21.1,21.1,0,0,0,13.045,21a.377.377,0,0,0-.509.113l-.849,1.255a.836.836,0,0,1-1.16.226l-.028-.019a.836.836,0,0,1-.226-1.16l.717-1.066a.382.382,0,0,0-.151-.557c-.406-.2-.811-.377-1.236-.547-.689-.274-1.377-.519-2.085-.726a.38.38,0,0,0-.462.245L6.62,20.122a.835.835,0,0,1-1.057.538l-.038-.009a.835.835,0,0,1-.538-1.057l.377-1.17a.381.381,0,0,0-.292-.491c-.547-.094-1.1-.17-1.66-.226a.057.057,0,0,1-.038-.009v.4A19.62,19.62,0,0,0,23,37.717h.4c0-.009-.009-.028-.009-.038C23.338,37.17,23.272,36.651,23.187,36.141Z" transform="translate(0 4.897)" fill="#626262"/>
    <path id="Path_180" data-name="Path 180" d="M39.489,25.306l-.557,1.736a.835.835,0,0,1-1.057.538l-.038-.009a.835.835,0,0,1-.538-1.057l.5-1.566a.382.382,0,0,0-.255-.481A23.366,23.366,0,0,1,33.8,23a.382.382,0,0,0-.481.123l-.991,1.453a.836.836,0,0,1-1.16.226l-.028-.019a.836.836,0,0,1-.226-1.16l.868-1.283a.373.373,0,0,0-.113-.528,23.32,23.32,0,0,1-3.321-2.519.379.379,0,0,0-.519.009L26.62,20.5a.826.826,0,0,1-1.179,0l-.028-.028a.826.826,0,0,1,0-1.179l1.208-1.208a.37.37,0,0,0,.009-.519,25.355,25.355,0,0,1-2.453-3.208.374.374,0,0,0-.528-.113l-1.255.849a.834.834,0,0,1-1.16-.226l-.019-.028a.834.834,0,0,1,.226-1.16l1.425-.962a.371.371,0,0,0,.123-.481A24.381,24.381,0,0,1,21.5,8.495a.386.386,0,0,0-.481-.255l-1.5.481a.843.843,0,0,1-1.057-.538l-.009-.038a.843.843,0,0,1,.538-1.057l1.66-.528a.38.38,0,0,0,.255-.434,24.871,24.871,0,0,1-.368-2.632A19.627,19.627,0,0,0,3.459,20.863h.094c.708.066,1.415.17,2.113.3A.38.38,0,0,0,6.1,20.91l.443-1.4A.835.835,0,0,1,7.6,18.976l.038.009a.835.835,0,0,1,.538,1.057l-.4,1.226a.378.378,0,0,0,.255.481,23.331,23.331,0,0,1,3.84,1.509.382.382,0,0,0,.481-.123l.783-1.16a.836.836,0,0,1,1.16-.226l.028.019a.836.836,0,0,1,.226,1.16l-.67.991a.373.373,0,0,0,.113.528,24.017,24.017,0,0,1,3.264,2.481.379.379,0,0,0,.519-.009l.981-.981a.826.826,0,0,1,1.179,0l.028.028a.826.826,0,0,1,0,1.179l-.962.981a.37.37,0,0,0-.009.519,24.007,24.007,0,0,1,2.547,3.377.374.374,0,0,0,.538.113l1.019-.689a.834.834,0,0,1,1.16.226l.019.028a.834.834,0,0,1-.226,1.16l-1.2.811a.371.371,0,0,0-.123.481,23.965,23.965,0,0,1,1.481,3.83.375.375,0,0,0,.481.255l1.283-.415a.843.843,0,0,1,1.057.538l.009.038a.843.843,0,0,1-.538,1.057l-1.472.472a.38.38,0,0,0-.255.434c.123.66.217,1.33.283,2v.094A19.627,19.627,0,0,0,42.432,25.382a22.744,22.744,0,0,1-2.519-.34A.391.391,0,0,0,39.489,25.306Z" transform="translate(0.029 0.043)" fill="#626262"/>
  </g>
</svg>
