<svg xmlns="http://www.w3.org/2000/svg" width="40" height="40.001" viewBox="0 0 40 40.001">
  <g id="Group_7" data-name="Group 7" transform="translate(-54 -269.002)">
    <path id="Path_174" data-name="Path 174" d="M375.941,121.146a3.873,3.873,0,0,0-.949,3.472,12.72,12.72,0,0,0,7.545,9.362,3.872,3.872,0,0,0,3.594-.19c1.624-1.314,1.355-5.375-1.647-9.1a9.741,9.741,0,0,0-6.813-4.069A2.718,2.718,0,0,0,375.941,121.146Zm0,0" transform="translate(-294.958 154.36)" fill="#fb1818"/>
    <path id="Path_175" data-name="Path 175" d="M303.513,69.408c2.889.6,5.683-.6,6.1-2.628s-1.667-4.233-4.557-4.832a7.387,7.387,0,0,0-1.491-.152,6.166,6.166,0,0,0-2.764.615,2.967,2.967,0,0,0-1.007,4.9,6.6,6.6,0,0,0,3.717,2.1Zm0,0" transform="translate(-225.574 209.317)" fill="#fb1818"/>
    <path id="Path_176" data-name="Path 176" d="M125.149,0a21.014,21.014,0,0,0-5.065.617c-.026.3-.056.6-.073.9a.723.723,0,0,1-.732.675h-.039a.72.72,0,0,1-.693-.748c.007-.128.022-.255.031-.383-.489.161-.97.335-1.442.529-.047.33-.1.661-.13,1a.725.725,0,0,1-.728.64h-.073a.738.738,0,0,1-.495-.259.7.7,0,0,1-.16-.524,1.1,1.1,0,0,1,.015-.119q-.721.373-1.406.8a26.829,26.829,0,0,0,5.219,21,28.372,28.372,0,0,0,19.25,10.8q.659-.559,1.264-1.171l-.1-.016a.714.714,0,0,1-.591-.827.731.731,0,0,1,.85-.575c.332.058.668.1,1,.151q.512-.612.974-1.264c-.124-.026-.252-.046-.375-.071a.726.726,0,0,1-.552-.48.7.7,0,0,1,.162-.7.746.746,0,0,1,.71-.2c.293.064.6.117.9.172a19.435,19.435,0,0,0,.053-19.955A20.6,20.6,0,0,0,125.149,0Zm2.016,5.249A2.292,2.292,0,0,1,128.432,3.7a3.307,3.307,0,0,1,2.106-.246A2.675,2.675,0,0,1,132.9,6.4a2.608,2.608,0,0,1-2.68,1.862,3.471,3.471,0,0,1-.694-.071,3.241,3.241,0,0,1-1.83-1.039,2.232,2.232,0,0,1-.532-1.9Zm-6.18,5.057a26.883,26.883,0,0,0,.967,2.806.7.7,0,0,1-.1.712.743.743,0,0,1-.687.265.728.728,0,0,1-.574-.452,28.028,28.028,0,0,1-1.018-2.953.71.71,0,0,1,.514-.865.735.735,0,0,1,.9.487ZM119.243,3.8a.744.744,0,0,1,.529.182.7.7,0,0,1,.241.492,26.9,26.9,0,0,0,.324,2.94.7.7,0,0,1-.26.666.749.749,0,0,1-.723.114.718.718,0,0,1-.463-.552,28.3,28.3,0,0,1-.34-3.093.719.719,0,0,1,.692-.749Zm-3.7,4.385a28.426,28.426,0,0,1-.142-2.839.741.741,0,0,1,1.248-.523.692.692,0,0,1,.216.5A27.2,27.2,0,0,0,117,8.047a.7.7,0,0,1-.164.521.738.738,0,0,1-.5.256h-.073a.725.725,0,0,1-.725-.639Zm1.854,6.121a.73.73,0,0,1-.7-.5,27.972,27.972,0,0,1-.721-2.783.713.713,0,0,1,.575-.837.732.732,0,0,1,.861.559,26.447,26.447,0,0,0,.685,2.644.7.7,0,0,1-.054.543.728.728,0,0,1-.433.347.773.773,0,0,1-.214.031Zm2.573,5.064a.743.743,0,0,1-.993-.285A28.489,28.489,0,0,1,117.7,16.5a.7.7,0,0,1,.093-.706.742.742,0,0,1,.675-.275.73.73,0,0,1,.583.431,26.769,26.769,0,0,0,1.212,2.457.7.7,0,0,1-.294.964Zm3.349,4.545a.747.747,0,0,1-1.031-.09c-.629-.732-1.227-1.5-1.776-2.29a.7.7,0,0,1,.195-.989.745.745,0,0,1,1.017.189c.522.748,1.09,1.48,1.689,2.177a.7.7,0,0,1-.093,1Zm.256-4.781a28.817,28.817,0,0,1-1.647-2.669.7.7,0,0,1,.027-.712.743.743,0,0,1,1.268.046,27.124,27.124,0,0,0,1.565,2.537.7.7,0,0,1-.2.988.745.745,0,0,1-1.017-.191Zm3.948,8.6a.737.737,0,0,1-.491.262.746.746,0,0,1-.538-.153c-.765-.6-1.507-1.239-2.2-1.906a.7.7,0,0,1,.006-.991.747.747,0,0,1,1.019-.024c.664.633,1.369,1.243,2.1,1.812a.7.7,0,0,1,.112,1Zm.176-3.85a29.472,29.472,0,0,1-2.2-2.265.7.7,0,0,1-.141-.707.727.727,0,0,1,.566-.465.743.743,0,0,1,.693.253,28.045,28.045,0,0,0,2.09,2.151.7.7,0,0,1,.024,1.007.747.747,0,0,1-1.035.023Zm4.717,6.785a.742.742,0,0,1-.987.3c-.869-.438-1.726-.925-2.548-1.446a.7.7,0,0,1,.071-1.235.753.753,0,0,1,.733.04c.782.5,1.6.959,2.423,1.375a.716.716,0,0,1,.359.418.693.693,0,0,1-.05.543Zm.732-2.9a.74.74,0,0,1-.38-.1,29.74,29.74,0,0,1-2.636-1.758.7.7,0,0,1-.118-.985.746.746,0,0,1,1.009-.144,28.387,28.387,0,0,0,2.509,1.671.7.7,0,0,1,.324.8.729.729,0,0,1-.705.519Zm4.663,4.832a.739.739,0,0,1-.9.488q-1.42-.395-2.795-.925a.716.716,0,0,1-.459-.559.7.7,0,0,1,.272-.664.749.749,0,0,1,.728-.1c.867.335,1.761.631,2.656.88a.709.709,0,0,1,.5.88Zm1.667-2.742a.731.731,0,0,1-.693.481.748.748,0,0,1-.237-.039,29.975,29.975,0,0,1-2.965-1.167.714.714,0,0,1-.437-.586.705.705,0,0,1,.316-.655.75.75,0,0,1,.742-.048,28.568,28.568,0,0,0,2.818,1.109.725.725,0,0,1,.422.36.7.7,0,0,1,.036.545Zm1.086-19.394c1.932,2.331,2.2,5.138.6,6.39a2.825,2.825,0,0,1-1.776.579,4.341,4.341,0,0,1-1.416-.255,7.233,7.233,0,0,1-3.1-2.248,6.958,6.958,0,0,1-1.6-3.427,3.08,3.08,0,0,1,1-2.963c1.6-1.256,4.364-.41,6.3,1.923Zm0,0" transform="translate(-51.653 269.002)" fill="#fb1818"/>
    <path id="Path_177" data-name="Path 177" d="M20.5,90.248a21.08,21.08,0,0,0,4.3-.445.673.673,0,0,1,0-.177.712.712,0,0,1,.306-.457.749.749,0,0,1,.549-.113q.612.107,1.234.194A20.833,20.833,0,0,0,29.735,88.1a.7.7,0,0,1-.053-.788.738.738,0,0,1,.727-.351c.384.047.773.082,1.161.114q.422-.263.828-.547c-15.632-2.546-26.44-16.6-24.535-31.906A20.558,20.558,0,0,0,6.022,56.2c-.051.377-.1.754-.133,1.139a.725.725,0,0,1-.729.65H5.094a.74.74,0,0,1-.494-.25,20.018,20.018,0,0,0-1.855,2.619c-.028.4-.05.8-.058,1.211a.723.723,0,0,1-.732.7H1.941a.706.706,0,0,1-.177-.038A19.461,19.461,0,0,0,3.312,81.183,20.639,20.639,0,0,0,20.5,90.248ZM7.907,79.209a.744.744,0,0,1-1.023-.157A28.9,28.9,0,0,1,5.143,76.44a.7.7,0,0,1,.269-.974.744.744,0,0,1,1,.261,27.563,27.563,0,0,0,1.655,2.483.7.7,0,0,1,.133.532.71.71,0,0,1-.294.466Zm4.3,4.391a.746.746,0,0,1-1.034.059,29.556,29.556,0,0,1-2.27-2.191.7.7,0,0,1,.064-.991.747.747,0,0,1,1.021.035A28.173,28.173,0,0,0,12.149,82.6.7.7,0,0,1,12.21,83.6Zm11.647,2.527a.719.719,0,0,1,.372-.408.75.75,0,0,1,.56-.033q1.36.455,2.762.775a.725.725,0,0,1,.549.485.7.7,0,0,1-.169.7.746.746,0,0,1-.714.2,30.037,30.037,0,0,1-2.907-.815.707.707,0,0,1-.453-.9Zm-.692,3.107a.73.73,0,0,1-.7.506.765.765,0,0,1-.213-.03,30.09,30.09,0,0,1-3.005-1.068.705.705,0,0,1-.38-.933.74.74,0,0,1,.955-.377,28.592,28.592,0,0,0,2.855,1.012.729.729,0,0,1,.435.348.694.694,0,0,1,.053.545Zm-4.59-5.654a.73.73,0,0,1,.449-.327.752.752,0,0,1,.555.079,28.3,28.3,0,0,0,2.542,1.307.714.714,0,0,1,.428.583.7.7,0,0,1-.31.65.749.749,0,0,1-.734.059q-1.373-.621-2.675-1.374a.7.7,0,0,1-.255-.974Zm-4.643-3.536A.747.747,0,0,1,14.966,80a28.354,28.354,0,0,0,2.22,1.781.7.7,0,0,1,.255.795.738.738,0,0,1-1.13.345,29.733,29.733,0,0,1-2.335-1.873.7.7,0,0,1-.044-1Zm-.425,4.562a.736.736,0,0,1,.475-.289.748.748,0,0,1,.546.123A28.743,28.743,0,0,0,17.1,86.028a.7.7,0,0,1,.014,1.234.749.749,0,0,1-.732.008,30.02,30.02,0,0,1-2.7-1.669.7.7,0,0,1-.171-.991Zm-3.393-8.934a.747.747,0,0,1,.546-.128.735.735,0,0,1,.479.286,27.976,27.976,0,0,0,1.806,2.18.7.7,0,0,1,.149.7.726.726,0,0,1-.546.474.745.745,0,0,1-.7-.223,29.148,29.148,0,0,1-1.9-2.293.7.7,0,0,1,.161-.994Zm-1.86-4.679a26.893,26.893,0,0,0,1.318,2.493.7.7,0,0,1,.026.733A.742.742,0,0,1,8.305,74.2a28.3,28.3,0,0,1-1.383-2.62.7.7,0,0,1,.374-.925.741.741,0,0,1,.96.34Zm-1.81-5.307a26.667,26.667,0,0,0,.765,2.7.7.7,0,0,1-.041.544.725.725,0,0,1-.424.357.739.739,0,0,1-.231.036.731.731,0,0,1-.695-.488,28.261,28.261,0,0,1-.805-2.841.7.7,0,0,1,.22-.68.747.747,0,0,1,.716-.154.719.719,0,0,1,.494.527Zm-1.4-6.255a.732.732,0,0,1,.742.7,26.983,26.983,0,0,0,.185,2.793.7.7,0,0,1-.154.524.737.737,0,0,1-.49.265.734.734,0,0,1-.811-.625,28.377,28.377,0,0,1-.2-2.937.7.7,0,0,1,.208-.508.743.743,0,0,1,.517-.215ZM3.974,70.318a26.729,26.729,0,0,0,1.068,2.773.7.7,0,0,1-.068.722.74.74,0,0,1-.683.29A.729.729,0,0,1,3.7,73.66a28.415,28.415,0,0,1-1.125-2.92.709.709,0,0,1,.479-.893.736.736,0,0,1,.918.466ZM2,63.872a.746.746,0,0,1,.535.164.707.707,0,0,1,.259.483,26.761,26.761,0,0,0,.429,2.93.7.7,0,0,1-.236.675.747.747,0,0,1-.719.138.718.718,0,0,1-.482-.537,28.068,28.068,0,0,1-.451-3.081.7.7,0,0,1,.169-.52.739.739,0,0,1,.5-.252Zm0,0" transform="translate(54 218.755)" fill="#fb1818"/>
  </g>
</svg>
