<svg xmlns="http://www.w3.org/2000/svg" width="28" height="28" viewBox="0 0 28 28">
  <g id="Icon_feather-settings" data-name="Icon feather-settings" transform="translate(-0.25 -0.25)">
    <path id="Path_172" data-name="Path 172" d="M22.5,18A4.5,4.5,0,1,1,18,13.5,4.5,4.5,0,0,1,22.5,18Z" transform="translate(-3.75 -3.75)" fill="none" stroke="#fff" stroke-linecap="round" stroke-linejoin="round" stroke-width="2.5"/>
    <path id="Path_173" data-name="Path 173" d="M22.827,17.727a1.913,1.913,0,0,0,.382,2.11l.07.07A2.319,2.319,0,1,1,20,23.187l-.07-.07a1.928,1.928,0,0,0-3.269,1.368v.2a2.318,2.318,0,1,1-4.636,0v-.1a1.913,1.913,0,0,0-1.252-1.75,1.912,1.912,0,0,0-2.11.382l-.07.07A2.319,2.319,0,1,1,5.313,20l.07-.07a1.928,1.928,0,0,0-1.368-3.269h-.2a2.318,2.318,0,0,1,0-4.636h.1a1.912,1.912,0,0,0,1.75-1.252,1.913,1.913,0,0,0-.383-2.11l-.07-.07A2.319,2.319,0,1,1,8.5,5.313l.07.07a1.913,1.913,0,0,0,2.11.383h.093a1.912,1.912,0,0,0,1.159-1.75v-.2a2.318,2.318,0,0,1,4.636,0v.1A1.928,1.928,0,0,0,19.837,5.29l.07-.07a2.319,2.319,0,1,1,3.28,3.28l-.07.07a1.912,1.912,0,0,0-.383,2.11v.093a1.912,1.912,0,0,0,1.75,1.159h.2a2.318,2.318,0,1,1,0,4.636h-.1a1.913,1.913,0,0,0-1.75,1.159Z" transform="translate(0 0)" fill="none" stroke="#fff" stroke-linecap="round" stroke-linejoin="round" stroke-width="2.5"/>
  </g>
</svg>
