<svg xmlns="http://www.w3.org/2000/svg" width="25.5" height="25.5" viewBox="0 0 25.5 25.5">
  <path id="Icon_awesome-history" data-name="Icon awesome-history" d="M26.063,13.288A12.751,12.751,0,0,1,5.311,23.239a1.233,1.233,0,0,1-.095-1.831L5.8,20.83a1.236,1.236,0,0,1,1.64-.1,9.46,9.46,0,1,0-.6-14.308L9.441,9.029a.823.823,0,0,1-.582,1.4H1.385a.823.823,0,0,1-.823-.823V2.137a.823.823,0,0,1,1.4-.582L4.505,4.094a12.75,12.75,0,0,1,21.558,9.195Zm-9.3,4.05.505-.649a1.234,1.234,0,0,0-.216-1.731L14.958,13.33V7.966a1.234,1.234,0,0,0-1.234-1.234H12.9a1.234,1.234,0,0,0-1.234,1.234V14.94l3.363,2.616A1.234,1.234,0,0,0,16.762,17.339Z" transform="translate(-0.563 -0.563)" fill="#fff"/>
</svg>
